<svg width="187" height="58" viewBox="0 0 187 58" fill="none" xmlns="http://www.w3.org/2000/svg">
<path d="M2.064 21.224H5.808V38H2.064V21.224ZM13.1618 30.8V38H9.56181V25.088H13.1618V26.528C14.2498 25.424 15.4738 24.872 16.8338 24.872C18.1938 24.872 19.3298 25.352 20.2418 26.312C21.1698 27.272 21.6338 28.552 21.6338 30.152V38H18.0338V30.704C18.0338 28.72 17.3058 27.728 15.8498 27.728C15.1298 27.728 14.4978 27.992 13.9538 28.52C13.4258 29.032 13.1618 29.792 13.1618 30.8ZM30.1499 38.192C28.6299 38.192 27.2699 37.544 26.0699 36.248C24.8699 34.952 24.2699 33.344 24.2699 31.424C24.2699 29.504 24.8539 27.936 26.0219 26.72C27.1899 25.488 28.5579 24.872 30.1259 24.872C31.6939 24.872 32.9739 25.424 33.9659 26.528V20.192H37.5659V38H33.9659V36.296C32.9579 37.56 31.6859 38.192 30.1499 38.192ZM27.8939 31.568C27.8939 32.608 28.2059 33.464 28.8299 34.136C29.4539 34.792 30.1819 35.12 31.0139 35.12C31.8459 35.12 32.5499 34.792 33.1259 34.136C33.7179 33.464 34.0139 32.608 34.0139 31.568C34.0139 30.512 33.7179 29.64 33.1259 28.952C32.5499 28.248 31.8379 27.896 30.9899 27.896C30.1419 27.896 29.4139 28.248 28.8059 28.952C28.1979 29.656 27.8939 30.528 27.8939 31.568ZM44.6743 38H41.0743V25.088H44.6743V38ZM41.3623 23.456C40.9623 23.04 40.7623 22.536 40.7623 21.944C40.7623 21.352 40.9623 20.856 41.3623 20.456C41.7783 20.04 42.2823 19.832 42.8743 19.832C43.4663 19.832 43.9623 20.04 44.3623 20.456C44.7783 20.856 44.9863 21.352 44.9863 21.944C44.9863 22.536 44.7783 23.04 44.3623 23.456C43.9623 23.856 43.4663 24.056 42.8743 24.056C42.2823 24.056 41.7783 23.856 41.3623 23.456ZM54.3741 35C55.5741 35 56.6541 34.4 57.6141 33.2L59.7501 35.6C58.0861 37.328 56.2861 38.192 54.3501 38.192C52.4141 38.192 50.7741 37.584 49.4301 36.368C48.1021 35.136 47.4381 33.536 47.4381 31.568C47.4381 29.584 48.1101 27.976 49.4541 26.744C50.8141 25.496 52.4221 24.872 54.2781 24.872C55.2061 24.872 56.1421 25.064 57.0861 25.448C58.0461 25.832 58.8861 26.4 59.6061 27.152L57.7341 29.6C57.3181 29.104 56.8061 28.72 56.1981 28.448C55.6061 28.176 55.0141 28.04 54.4221 28.04C53.4781 28.04 52.6621 28.352 51.9741 28.976C51.3021 29.584 50.9661 30.44 50.9661 31.544C50.9661 32.632 51.3021 33.48 51.9741 34.088C52.6621 34.696 53.4621 35 54.3741 35ZM64.9199 31.544C64.9199 32.6 65.2159 33.464 65.8079 34.136C66.4159 34.792 67.1839 35.12 68.1119 35.12C69.0559 35.12 69.8239 34.792 70.4159 34.136C71.0239 33.464 71.3279 32.6 71.3279 31.544C71.3279 30.488 71.0239 29.624 70.4159 28.952C69.8239 28.28 69.0559 27.944 68.1119 27.944C67.1839 27.944 66.4159 28.28 65.8079 28.952C65.2159 29.624 64.9199 30.488 64.9199 31.544ZM74.9519 31.544C74.9519 33.416 74.3039 34.992 73.0079 36.272C71.7119 37.552 70.0799 38.192 68.1119 38.192C66.1599 38.192 64.5359 37.552 63.2399 36.272C61.9439 34.992 61.2959 33.416 61.2959 31.544C61.2959 29.672 61.9439 28.096 63.2399 26.816C64.5359 25.52 66.1599 24.872 68.1119 24.872C70.0799 24.872 71.7119 25.52 73.0079 26.816C74.3039 28.096 74.9519 29.672 74.9519 31.544ZM84.5179 28.256C83.4459 28.256 82.6459 28.64 82.1179 29.408C81.5899 30.16 81.3259 31.16 81.3259 32.408V38H77.7259V25.088H81.3259V26.792C81.7899 26.264 82.3659 25.816 83.0539 25.448C83.7579 25.08 84.4699 24.888 85.1899 24.872L85.2139 28.256H84.5179ZM95.2051 24.872C96.7091 24.872 98.0451 25.504 99.2131 26.768C100.397 28.016 100.989 29.592 100.989 31.496C100.989 33.4 100.397 34.992 99.2131 36.272C98.0451 37.552 96.6691 38.192 95.0851 38.192C93.5171 38.192 92.2531 37.56 91.2931 36.296V42.656H87.6931V25.088H91.2931V26.528C92.3971 25.424 93.7011 24.872 95.2051 24.872ZM91.2451 31.568C91.2451 32.608 91.5331 33.464 92.1091 34.136C92.7011 34.792 93.4131 35.12 94.2451 35.12C95.0771 35.12 95.8051 34.792 96.4291 34.136C97.0531 33.464 97.3651 32.608 97.3651 31.568C97.3651 30.528 97.0611 29.656 96.4531 28.952C95.8451 28.248 95.1171 27.896 94.2691 27.896C93.4211 27.896 92.7011 28.248 92.1091 28.952C91.5331 29.64 91.2451 30.512 91.2451 31.568Z" fill="#252B42"/>
</svg>
